<svg xmlns="http://www.w3.org/2000/svg" viewBox="0 0 72 216" enable-background="new 0 0 72 216"><style type="text/css">.st0{fill:#FFFFFF;}</style><path class="st0" d="M65.7 36.9s-1.5-1.2-2.6-1.2c0 0-.2-2.9-3.9-2.5-3.7.3-5.5 2-6.6 1.8-1-.2-7-11.7-9.7-12.8-2.5-1-4.8-3.6-6.7-6.7-1-1.7-2.1.8-2 2.3.1 1.5-1.4 8.9 8.3 16.6 0 0 1.6.4-3.7 1-6.3.8-8.9-2-8.9-2-2.3.6-3.2 3.8-.8 5 0 0 7.7 3.8 20.6 3.6 9.1-.2 9.6-4.3 12.1-4.6l3.9-.5zM65.7 108.7s-1-.8-2.6-1.2c0 0-.4-2-1.7-2.3-1.3-.3-5.2.1-8.1 1.5 0 0 0-1.4-2.1-1.6-2-.2-5.2 1.2-9.9 0s-7.3-3.3-7.4-2.3 2.8 3.8 6.1 4.3c0 0-1.5.6-5.7.1s-4.3-1.9-4.3-1.9-3.2.9-2 3.8c1.2 2.9 16.2 5.5 23.2 4.7 6.9-.9 9.8-4.8 10.5-4.8l4-.3zM66.2 181.1s-1.2-1.1-2.6-1.2c0 0-.6-1.9-2.3-2.5s-6 1.2-6.8 1.5-3.6-.9-5.6-1.3c-3.4-.6-6 .3-6.9.8-.8.6-4 2.4-8.1 1-3.9-1.3-4.1-1.2-4.1-1.2s-3.5 4.2-1.9 4.2c6.8-.1 13.2 3.3 13.2 3.3s-.4 6.2 1.9 9.1l5.2 2.9s-.1-3.4 1-5.5c1.2-2.1 1.2-6 1.2-6s7 0 10.1-3.7c1.1-1.5 5.7-1.4 5.7-1.4z"/></svg>