<?xml version="1.0" encoding="utf-8"?>
<!-- Generator: Adobe Illustrator 18.1.1, SVG Export Plug-In . SVG Version: 6.00 Build 0)  -->
<svg version="1.1" id="Layer_1" xmlns="http://www.w3.org/2000/svg" xmlns:xlink="http://www.w3.org/1999/xlink" x="0px" y="0px"
	 viewBox="0 0 72 216" style="enable-background:new 0 0 72 216;" xml:space="preserve">
<style type="text/css">
	.st0{fill:#FFFFFF;}
</style>
<path class="st0" d="M65.7,36.9c0,0-1.5-1.2-2.6-1.2c0,0-0.2-2.9-3.9-2.5c-3.7,0.3-5.5,2-6.6,1.8c-1-0.2-7-11.7-9.7-12.8
	c-2.5-1-4.8-3.6-6.7-6.7c-1-1.7-2.1,0.8-2,2.3c0.1,1.5-1.4,8.9,8.3,16.6c0,0,1.6,0.4-3.7,1c-6.3,0.8-8.9-2-8.9-2
	c-2.3,0.6-3.2,3.8-0.8,5c0,0,7.7,3.8,20.6,3.6c9.1-0.2,9.6-4.3,12.1-4.6S65.7,36.9,65.7,36.9z"/>
<path class="st0" d="M65.7,108.7c0,0-1-0.8-2.6-1.2c0,0-0.4-2-1.7-2.3c-1.3-0.3-5.2,0.1-8.1,1.5c0,0,0-1.4-2.1-1.6
	c-2-0.2-5.2,1.2-9.9,0s-7.3-3.3-7.4-2.3s2.8,3.8,6.1,4.3c0,0-1.5,0.6-5.7,0.1c-4.2-0.5-4.3-1.9-4.3-1.9s-3.2,0.9-2,3.8
	c1.2,2.9,16.2,5.5,23.2,4.7c6.9-0.9,9.8-4.8,10.5-4.8S65.7,108.7,65.7,108.7z"/>
<path class="st0" d="M66.2,181.1c0,0-1.2-1.1-2.6-1.2c0,0-0.6-1.9-2.3-2.5s-6,1.2-6.8,1.5s-3.6-0.9-5.6-1.3c-3.4-0.6-6,0.3-6.9,0.8
	c-0.8,0.6-4,2.4-8.1,1c-3.9-1.3-4.1-1.2-4.1-1.2c0,0,0,0,0,0c0,0-3.5,4.2-1.9,4.2c6.8-0.1,13.2,3.3,13.2,3.3s-0.4,6.2,1.9,9.1
	s5.2,2.9,5.2,2.9s-0.1-3.4,1-5.5c1.2-2.1,1.2-6,1.2-6s7,0,10.1-3.7C61.6,181,66.2,181.1,66.2,181.1z"/>
</svg>
