<svg xmlns="http://www.w3.org/2000/svg" viewBox="0 0 124.1 157.4" enable-background="new 0 0 124.1 157.4"><style type="text/css">.st0{fill:#C67500;} .st1{fill:#FCED83;} .st2{fill:#331703;} .st3{fill:#0F0701;}</style><g id="Layer_1"><path class="st0" d="M11.2 136.9c-6.1-3.3-.8-10.3-1-15.2-.2-4.9-2.7-13.6-.4-17.6s4-5.9 3.8-10.5 3.1-11 6.4-11.9c3.3-.9 10.8-4.9 13.5-9.8 2.7-4.9 8.9-8 8.9-8s-4.6 4.7-1.9 7 7-4.9 8.2-10.1c1.2-5.2 8.4-10.3 8.4-10.3s-4.1 6.3-4.1 9.6l-2.9 8.8s6.3-5.5 9.4-8.3c3.1-2.8 3.7-8.7 3.7-8.7s1.2 1.2 1 4.9c0 0 2-1.4 3.3-6.3 1.2-4.9 3.9-10.1 7.2-12.9 3.3-2.8 4.7-4.7 4.9-8.2 0 0 2 5.5 0 8.9 0 0 6.8-3 11.1-11.7l8.8-8.2s-2.7 2.6-1.8 5.9c.8 3.3 8-1.2 10.2-7.5 2.3-6.3 11.7-10.3 11.7-10.3s-8 7-8 18.7-3.9 18-6.3 18.5c0 0 5.3 1.4 9.4-4.4 0 0-4.5 9.8-8 12.2s-2.9 4-1.2 4.7c1.6.7 4.3-2.8 4.3-2.8s-2.9 8.2-6.8 10.1-6.5 4.7-6.5 7.7c0 0 2.3-.9 3.7-2.2 0 0 0 5.4-4.5 7.4-4.5 2.1-8.2 11.4-8.2 11.4s7.4-1.4 8.2-4.9c0 0-3.9 14-11.3 16.4-7.4 2.3-8.2 11-10.8 20.4-2.7 9.4-4.3 23.4-14.3 24.8s-11.3 5.8-18.6 5.8-9.2-5.6-15.6-3.7"/><path class="st1" d="M30.8 82c-8.4 3.5-9.9 9.7-13.4 19.3s-5.2 7.7-4.4 17.6-4.5 15.7 4 20.2 16.5 1.2 19 6.1c2.5 4.9 12.4-3.1 12.4-3.1s12.4-.2 13.2-3.1c.9-3 .7-8.7 4-13.2s1.6-21.1 8.4-27 9.2-14.2 9.9-20.4c.7-6.1 8.9-14.1 14.1-16.4 0 0-2.4-2.3-8.9 0 0 0 5.8-10.2 13.9-13.4 0 0-1.7-3-8.7 0 0 0 10.7-7.6 12-19.7 0 0-5.9 7.3-10.3 3.5l-.7-8.2s-4.9 5.9-6.6 16.4c-1.7 10.5-9.2 5.2-7.5.3 0 0-4 4.2-4.5 14.1s-7 8-7 5.2 2.4-7.5 2.4-7.5-6.7 7.9-13 13.8c-7.7 7.2-9.8 8.3-15.9 8.3l-12.4 7.2z"/><path class="st2" d="M23.4 93.5s-1.9 8.8-5 9.8l-3.1 10.2s1.9 4.7 0 9.5.6 6.8 0 10.2l10.6 5.4s12.5.3 12.8 3.7l10.3-4.4s10.6 1.4 10.6-2.7 4.4-11.2 6.2-14.9c1.9-3.7-3-10.2-3-10.2s3.3-7.1 0-9.1-10.4-7.4-10.4-7.4-6.2-8.8-10.6-5.8-7.2.7-11.6 1.7l-6.8 4z"/><path class="st3" d="M51 99s-6.1-4.7-7.4-2.6c-1.3 2.1 2.8 4.8 2.8 4.8s-2.7-.1-5.9-1.8c-3.3-1.7-10.9 2.7-8.9 6.9 2 4.3 11.8 3.1 13 5.1l3.3 10.8s5 3.1 7.4.7c2.4-2.4 6.4.9 6.4.9s-4-.5-6.4 1.6c-2.4 2.1-5.5 2.6-10.5 0s-7.1 4.3-7.1 4.3-1 4.8 2.8 6.5c3.8 1.7 1 4 1 4s-3.3-4-8.9-5.8c-5.7-1.8.3-6.1.3-8.1s10.3-3.3 9.2-5.4c-1.1-2.1-1.8-8.5-7.4-8.9-5.5-.4-9.6 3-9.5 4.1.1 1.1 2-1.3 5.4.1l2.6 3.7s-2.4-2.3-5.7-1.9-4.7 4-1 3.9c0 0-4.4 1.6-5-.6 0 0-2.6 6.8 0 9.5 0 0-5.2-7.4-2.7-12 2.6-4.7.6-12.2.6-12.2s2.4 6.2 5.2 4.3c2.8-2 .9-3.7 2.6-7.4l8.2-6.2s-.4-5.1-4.4-5.1c0-.1 12.7-4.6 20 6.8z"/></g></svg>