<?xml version="1.0" encoding="utf-8"?>
<!-- Generator: Adobe Illustrator 18.1.1, SVG Export Plug-In . SVG Version: 6.00 Build 0)  -->
<svg version="1.1" xmlns="http://www.w3.org/2000/svg" xmlns:xlink="http://www.w3.org/1999/xlink" x="0px" y="0px"
	 viewBox="0 0 124.1 157.4" style="enable-background:new 0 0 124.1 157.4;" xml:space="preserve">
<style type="text/css">
	.st0{fill:#C67500;}
	.st1{fill:#FCED83;}
	.st2{fill:#331703;}
	.st3{fill:#0F0701;}
</style>
<g id="Layer_1">
	<path class="st0" d="M11.2,136.9c-6.1-3.3-0.8-10.3-1-15.2c-0.2-4.9-2.7-13.6-0.4-17.6s4-5.9,3.8-10.5s3.1-11,6.4-11.9
		c3.3-0.9,10.8-4.9,13.5-9.8c2.7-4.9,8.9-8,8.9-8s-4.6,4.7-1.9,7s7-4.9,8.2-10.1c1.2-5.2,8.4-10.3,8.4-10.3S53,56.8,53,60.1
		s-2.9,8.8-2.9,8.8s6.3-5.5,9.4-8.3c3.1-2.8,3.7-8.7,3.7-8.7s1.2,1.2,1,4.9c0,0,2-1.4,3.3-6.3c1.2-4.9,3.9-10.1,7.2-12.9
		c3.3-2.8,4.7-4.7,4.9-8.2c0,0,2,5.5,0,8.9c0,0,6.8-3,11.1-11.7s8.8-8.2,8.8-8.2s-2.7,2.6-1.8,5.9c0.8,3.3,8-1.2,10.2-7.5
		c2.3-6.3,11.7-10.3,11.7-10.3s-8,7-8,18.7s-3.9,18-6.3,18.5c0,0,5.3,1.4,9.4-4.4c0,0-4.5,9.8-8,12.2s-2.9,4-1.2,4.7
		c1.6,0.7,4.3-2.8,4.3-2.8s-2.9,8.2-6.8,10.1s-6.5,4.7-6.5,7.7c0,0,2.3-0.9,3.7-2.2c0,0,0,5.4-4.5,7.4c-4.5,2.1-8.2,11.4-8.2,11.4
		s7.4-1.4,8.2-4.9c0,0-3.9,14-11.3,16.4c-7.4,2.3-8.2,11-10.8,20.4c-2.7,9.4-4.3,23.4-14.3,24.8s-11.3,5.8-18.6,5.8
		s-9.2-5.6-15.6-3.7"/>
	<path class="st1" d="M30.8,82c-8.4,3.5-9.9,9.7-13.4,19.3s-5.2,7.7-4.4,17.6s-4.5,15.7,4,20.2c8.5,4.5,16.5,1.2,19,6.1
		c2.5,4.9,12.4-3.1,12.4-3.1s12.4-0.2,13.2-3.1c0.9-3,0.7-8.7,4-13.2s1.6-21.1,8.4-27s9.2-14.2,9.9-20.4c0.7-6.1,8.9-14.1,14.1-16.4
		c0,0-2.4-2.3-8.9,0c0,0,5.8-10.2,13.9-13.4c0,0-1.7-3-8.7,0c0,0,10.7-7.6,12-19.7c0,0-5.9,7.3-10.3,3.5s-0.7-8.2-0.7-8.2
		s-4.9,5.9-6.6,16.4c-1.7,10.5-9.2,5.2-7.5,0.3c0,0-4,4.2-4.5,14.1s-7,8-7,5.2c0-2.8,2.4-7.5,2.4-7.5s-6.7,7.9-13,13.8
		c-7.7,7.2-9.8,8.3-15.9,8.3S30.8,82,30.8,82z"/>
	<path class="st2" d="M23.4,93.5c0,0-1.9,8.8-5,9.8s-3.1,10.2-3.1,10.2s1.9,4.7,0,9.5s0.6,6.8,0,10.2s10.6,5.4,10.6,5.4
		s12.5,0.3,12.8,3.7s10.3-4.4,10.3-4.4s10.6,1.4,10.6-2.7c0-4.1,4.4-11.2,6.2-14.9c1.9-3.7-3-10.2-3-10.2s3.3-7.1,0-9.1
		c-3.3-2-10.4-7.4-10.4-7.4s-6.2-8.8-10.6-5.8s-7.2,0.7-11.6,1.7S23.4,93.5,23.4,93.5z"/>
	<path class="st3" d="M51,99c0,0-6.1-4.7-7.4-2.6c-1.3,2.1,2.8,4.8,2.8,4.8s-2.7-0.1-5.9-1.8c-3.3-1.7-10.9,2.7-8.9,6.9
		c2,4.3,11.8,3.1,13,5.1s3.3,10.8,3.3,10.8s5,3.1,7.4,0.7c2.4-2.4,6.4,0.9,6.4,0.9s-4-0.5-6.4,1.6c-2.4,2.1-5.5,2.6-10.5,0
		c-5-2.6-7.1,4.3-7.1,4.3s-1,4.8,2.8,6.5c3.8,1.7,1,4,1,4s-3.3-4-8.9-5.8c-5.7-1.8,0.3-6.1,0.3-8.1c0-2,10.3-3.3,9.2-5.4
		c-1.1-2.1-1.8-8.5-7.4-8.9c-5.5-0.4-9.6,3-9.5,4.1c0.1,1.1,2-1.3,5.4,0.1s2.6,3.7,2.6,3.7s-2.4-2.3-5.7-1.9s-4.7,4-1,3.9
		c0,0-4.4,1.6-5-0.6c0,0-2.6,6.8,0,9.5c0,0-5.2-7.4-2.7-12c2.6-4.7,0.6-12.2,0.6-12.2s2.4,6.2,5.2,4.3c2.8-2,0.9-3.7,2.6-7.4
		s8.2-6.2,8.2-6.2s-0.4-5.1-4.4-5.1C31,92.1,43.7,87.6,51,99z"/>
</g>
<g id="Layer_2">
</g>
</svg>
