<?xml version="1.0" encoding="utf-8"?>
<!-- Generator: Adobe Illustrator 18.1.1, SVG Export Plug-In . SVG Version: 6.00 Build 0)  -->
<svg version="1.1" id="Layer_1" xmlns="http://www.w3.org/2000/svg" xmlns:xlink="http://www.w3.org/1999/xlink" x="0px" y="0px"
	 viewBox="0 0 40 40" style="enable-background:new 0 0 40 40;" xml:space="preserve">
<style type="text/css">
	.st0{fill:#FFFFFF;}
</style>
<path class="st0" d="M32.8,10.8l-22,22c-1,1-2.7,1-3.7,0l0,0c-1-1-1-2.7,0-3.7l22-22c1-1,2.7-1,3.7,0l0,0
	C33.8,8.2,33.8,9.8,32.8,10.8z"/>
<path class="st0" d="M7.2,10.8l22,22c1,1,2.7,1,3.7,0l0,0c1-1,1-2.7,0-3.7l-22-22c-1-1-2.7-1-3.7,0l0,0C6.2,8.2,6.2,9.8,7.2,10.8z"
	/>
</svg>
