<?xml version="1.0" encoding="utf-8"?>
<!-- Generator: Adobe Illustrator 18.1.1, SVG Export Plug-In . SVG Version: 6.00 Build 0)  -->
<svg version="1.1" id="Layer_1" xmlns="http://www.w3.org/2000/svg" xmlns:xlink="http://www.w3.org/1999/xlink" x="0px" y="0px"
	 viewBox="0 0 80 80" style="enable-background:new 0 0 80 80;" xml:space="preserve">
<style type="text/css">
	.st0{fill:#424C29;}
	.st1{fill:#B5C681;}
</style>
<path class="st0" d="M35.6,12.5H4.5c-1.4,0-2.6-1.2-2.6-2.6v0c0-1.4,1.2-2.6,2.6-2.6h31.1c1.4,0,2.6,1.2,2.6,2.6v0
	C38.2,11.4,37,12.5,35.6,12.5z"/>
<path class="st0" d="M72.5,10.8l-22,22c-1,1-2.7,1-3.7,0l0,0c-1-1-1-2.7,0-3.7l22-22c1-1,2.7-1,3.7,0l0,0
	C73.5,8.2,73.5,9.8,72.5,10.8z"/>
<path class="st0" d="M35.6,22.6H4.5c-1.4,0-2.6-1.2-2.6-2.6v0c0-1.4,1.2-2.6,2.6-2.6h31.1c1.4,0,2.6,1.2,2.6,2.6v0
	C38.2,21.4,37,22.6,35.6,22.6z"/>
<path class="st0" d="M35.6,32.7H4.5c-1.4,0-2.6-1.2-2.6-2.6v0c0-1.4,1.2-2.6,2.6-2.6h31.1c1.4,0,2.6,1.2,2.6,2.6v0
	C38.2,31.5,37,32.7,35.6,32.7z"/>
<path class="st1" d="M35.6,52.5H4.5c-1.4,0-2.6-1.2-2.6-2.6v0c0-1.4,1.2-2.6,2.6-2.6h31.1c1.4,0,2.6,1.2,2.6,2.6v0
	C38.2,51.4,37,52.5,35.6,52.5z"/>
<path class="st1" d="M35.6,62.6H4.5c-1.4,0-2.6-1.2-2.6-2.6v0c0-1.4,1.2-2.6,2.6-2.6h31.1c1.4,0,2.6,1.2,2.6,2.6v0
	C38.2,61.4,37,62.6,35.6,62.6z"/>
<path class="st1" d="M35.6,72.7H4.5c-1.4,0-2.6-1.2-2.6-2.6v0c0-1.4,1.2-2.6,2.6-2.6h31.1c1.4,0,2.6,1.2,2.6,2.6v0
	C38.2,71.5,37,72.7,35.6,72.7z"/>
<path class="st0" d="M46.8,10.8l22,22c1,1,2.7,1,3.7,0l0,0c1-1,1-2.7,0-3.7l-22-22c-1-1-2.7-1-3.7,0l0,0
	C45.8,8.2,45.8,9.8,46.8,10.8z"/>
<path class="st1" d="M72.5,50.8l-22,22c-1,1-2.7,1-3.7,0l0,0c-1-1-1-2.7,0-3.7l22-22c1-1,2.7-1,3.7,0l0,0
	C73.5,48.2,73.5,49.8,72.5,50.8z"/>
<path class="st1" d="M46.8,50.8l22,22c1,1,2.7,1,3.7,0l0,0c1-1,1-2.7,0-3.7l-22-22c-1-1-2.7-1-3.7,0l0,0
	C45.8,48.2,45.8,49.8,46.8,50.8z"/>
</svg>
