<?xml version="1.0" encoding="utf-8"?>
<!-- Generator: Adobe Illustrator 18.1.1, SVG Export Plug-In . SVG Version: 6.00 Build 0)  -->
<svg version="1.1" id="Layer_1" xmlns="http://www.w3.org/2000/svg" xmlns:xlink="http://www.w3.org/1999/xlink" x="0px" y="0px"
	 viewBox="0 0 40 40" style="enable-background:new 0 0 40 40;" xml:space="preserve">
<style type="text/css">
	.st0{fill:#424C29;}
</style>
<path class="st0" d="M35.6,12.5H4.5c-1.4,0-2.6-1.2-2.6-2.6v0c0-1.4,1.2-2.6,2.6-2.6h31.1c1.4,0,2.6,1.2,2.6,2.6v0
	C38.2,11.4,37,12.5,35.6,12.5z"/>
<path class="st0" d="M35.6,22.6H4.5c-1.4,0-2.6-1.2-2.6-2.6v0c0-1.4,1.2-2.6,2.6-2.6h31.1c1.4,0,2.6,1.2,2.6,2.6v0
	C38.2,21.4,37,22.6,35.6,22.6z"/>
<path class="st0" d="M35.6,32.7H4.5c-1.4,0-2.6-1.2-2.6-2.6v0c0-1.4,1.2-2.6,2.6-2.6h31.1c1.4,0,2.6,1.2,2.6,2.6v0
	C38.2,31.5,37,32.7,35.6,32.7z"/>
</svg>
