<svg xmlns="http://www.w3.org/2000/svg" id="prophet-book" width="818" height="684" viewBox="0 0 818 684">
  <style>
    .st0{fill:#682121;} .st1{fill:#FFF3C2;stroke:#B29A7F;stroke-miterlimit:10;} .st2{fill:none;stroke:#B29A7F;stroke-miterlimit:10;} .st3{fill:none;stroke:#B29A7F;stroke-width:2;stroke-miterlimit:10;} .st4{fill:#891B0C;}
  </style>
  <g id="book">
    <path d="M44.3 218.5V576c0 9.3 7.5 16.8 16.7 16.8h272.4c0 10 8.2 18 18.3 18h51.6c10 0 18.3-8 18.3-18h271.2c9.2 0 16.7-7.5 16.7-16.7V219c0-9.2-7.5-16.7-16.7-16.7H61c-9.2 0-16.7 7.5-16.7 16.7z" class="st0"/>
    <path d="M61.5 206.8H692V579H61.5z" class="st1"/>
    <path d="M68.5 211.5h614v357h-614z" class="st1"/>
    <path d="M76.5 214.5h598v341h-598z" class="st1"/>
    <path d="M375.5 543V228m-271 15v8.8l8.3-9s6.8 1.2 8 8c0 0 5.4-1.3 6.7-3.5 1.4-2.2 9.3-9.3 13-1.8s11.8 3.7 11.8 3.7 1.4-6.4 8 0c7 6.4 8.4-.4 8.4-.4l7.7-1.8s2-7.5 6.4-1.5 14 6.4 14 6.4l6.3-10s11 5 11 10c0 4 11-5 11-5s4-2 9 2c6 3 7 0 7 0" class="st2"/>
    <path d="M105 282v15l14-15.2s11.5 2 13.4 13.8c0 0 9.2-2.4 11.5-6.2 2-3.7 15-16 22-3s20 6.2 20 6.2 2-11 14 0c11 11 14-.7 14-.7l13-3s3-13 11-3c7 10 23 11 23 11l11-17s19 10 18 17 17-9 17-9 6-3 15 3c9 5 12 0 12 0m-231 27v15l14-15s11.3 2 13.2 13c0 0 9.2-3 11.5-6 2-4 15.2-16 22-3s20 6 20 6 2-11 14 0c11 11 14-1 14-1l13-3s3.4-13 11-3c7 10 23.4 11 23.4 11l11-17s19 10 18.7 17c-.3 7 17.8-8.8 17.8-8.8s6.4-2.5 15.3 3c9 5.6 12 0 12 0m-231 27v15l14-15s11.5 2 13.5 14c0 0 9.2-2 11.5-6 2-3.8 15-16 22-3s20 6 20 6 2-11 14 0c11 11 14-.6 14-.6l13-3s3-13 11-3c7 10 23 11 23 11l11-17s19 10 18.7 17 17-8.6 17-8.6 6.7-2.4 15.6 3c9 5.7 12 0 12 0m-231 27v15l14-15s11.5 2 13.4 14c0 0 9.4-2.2 11.7-6 2-4 15.4-16 22-3s20 6 20 6 2-11 14 0c11 11 14-.6 14-.6l13-3s3.6-13 11-3c7 10 23.6 11 23.6 11l11-17s19 10 18.6 17 17.6-8 17.6-8 6.4-2.4 15.3 3.2c9 5.4 12 0 12 0m-231 27v15l14-15.3s11.7 2 13.6 14c0 0 9-2.4 11.3-6 2-3.8 15-16 22-3s20 6 20 6 2-11 14 0c11 11 14-.5 14-.5l13-3s3.5-13 11-3c7 10 23.5 11 23.5 11l10.6-17s19 10 18.8 17c-.5 7 17.6-8 17.6-8s6.6-2 15.5 3c9 6 12 0 12 0m-231 27v15l14-15s11.3 2 13.3 14c0 0 9-2 11-6 2-3.7 15.3-16 22-3s20 6 20 6 2-11 14 0c11 11 14-.5 14-.5l13-3s3.5-13 11-3c7 10 23.5 11 23.5 11l11-17s19 10 18.4 17c-.4 7 17.7-8 17.7-8s6.4-2.8 15.3 3c9 5 12 0 12 0m-231 27v15l14-15.6s12 2 14 13.5c0 0 9-2.2 11.6-6 2-3.6 15.2-16 22-3 6 12.8 20 6.3 20 6.3s2-11 14 0c11 11 14-1 14-1l13-3s3.4-13 11-3c7 10 23.4 11 23.4 11l11-17s19 10 18.5 17 18-8 18-8 6.3-2.3 15.2 3c9 6 12 0 12 0M422 253v15l14-15.2s11.5 2 13.4 13.8c0 0 9.2-2.4 11.5-6.2 2-3.7 15-16 22-3s20 6.2 20 6.2 2-11 14 0c11 11 14-.7 14-.7l13-3s3-13 11-3c7 10 23 11 23 11l11-17s19 10 18 17 17-9 17-9 6-3 15 3c9 5 12 0 12 0m-231 27v15l14-15s11.3 2 13.2 13c0 0 9.2-3 11.5-6 2-4 15.2-16 22-3s20 6 20 6 2-11 14 0c11 11 14-1 14-1l13-3s3.4-13 11-3c7 10 23.4 11 23.4 11l11-17s19 10 18.7 17c-.3 7 17.8-8.8 17.8-8.8s6.4-2.5 15.3 3c9 5.6 12 0 12 0m-231 27v15l14-15s11.5 2 13.5 14c0 0 9.2-2 11.5-6 2-3.8 15-16 22-3s20 6 20 6 2-11 14 0c11 11 14-.6 14-.6l13-3s3-13 11-3c7 10 23 11 23 11l11-17s19 10 18.7 17 17-8.6 17-8.6 6.7-2.4 15.6 3c9 5.7 12 0 12 0m-231 27v15l14-15s11.5 2 13.4 14c0 0 9.4-2.2 11.7-6 2-4 15.4-16 22-3s20 6 20 6 2-11 14 0c11 11 14-.6 14-.6l13-3s3.6-13 11-3c7 10 23.6 11 23.6 11l11-17s19 10 18.6 17 17.6-8 17.6-8 6.4-2.4 15.3 3.2c9 5.4 12 0 12 0" class="st3"/>
  </g>
  <g id="pen">
    <path d="M774.7 47.4s1.8 36.3-66.4 78C687 138 666.7 145.4 647 150l-16.5 20 7-17.8-14.8 3-6.7 21.2v-19.8c-31 6.3-60 12.3-85.8 36-1.8 1.6-3.5 3.3-5 5l3 37.3-6.2-34c-3 3-6 6-8.3 10l5 44-9.6-37c-4 7-8 15-10 23l6 19-7-13c-8 28-3 51-3 51l1 1c20-21 64-62 112-77 64-20 125-103 125-103s-29 71-123 116c-62 30-96 53-112 66 24 31 60 34 90.6 26l-29-16 39 13c11.5-4 22-9 30-15L606 292l32 9.8 3.8-4c2.3-3 4.4-5 6.4-8l-39-5 46-4c15.6-23 24.8-49 40.5-74l-22-2 28.5-8c3.2-4.8 6.7-9 10.5-14l-20.3 5.4 27-12.8c4.7-5 10-10 16-15 53-45.4 41-114.4 41-114.4z" class="st4"/>
    <path d="M464.2 316.3l29.8-18-1-6.3-34 22.4-32 17.5v12s13.2-19 18-12c5 7-17.7 18-17.7 18s3.3 11-4.8 29c0 0 15.4-16 27.6-16l33-35.6s-14-1.5-18-13.8z"/>
  </g>
</svg>
