<?xml version="1.0" encoding="utf-8"?>
<!-- Generator: Adobe Illustrator 18.1.1, SVG Export Plug-In . SVG Version: 6.00 Build 0)  -->
<svg version="1.1" xmlns="http://www.w3.org/2000/svg" xmlns:xlink="http://www.w3.org/1999/xlink" x="0px" y="0px"
	 viewBox="0 0 732 455" style="enable-background:new 0 0 732 455;" xml:space="preserve">
<style type="text/css">
	.st0{fill:#7C1D13;}
	.st1{fill:#471008;}
	.st2{fill:#701109;}
	.st3{fill:#280303;}
	.st4{fill:#563633;}
	.st5{clip-path:url(#SVGID_2_);fill:#280303;}
	.st6{clip-path:url(#SVGID_2_);fill:#564437;}
	.st7{clip-path:url(#SVGID_2_);fill:#442118;}
	.st8{clip-path:url(#SVGID_2_);fill:#473229;}
</style>
<g id="Layer_1">
	<rect x="-0.1" y="-0.2" class="st0" width="732.2" height="289.8"/>
	<path class="st1" d="M-0.1,129.9c0,0,25.2-24.6,32.2-27.5c7-2.9,46.8,48,46.8,48s22.2-29.8,27.5-32.2c5.3-2.3,27.5,32.2,27.5,32.2
		s43.3-63.7,59.6-70.8c16.4-7,80.1,73.7,80.1,73.7s28.1-43.9,35.7-46.2c7.6-2.3,25.1,21.1,25.1,21.1s5.3-11.5,8.8-11.9
		c3.5-0.4,22.8,29,22.8,29s12.3-19.9,19.9-29c7.6-9.1,40.4,55.2,43.3,59.3c0,0,39.2-56.7,45-61.4c5.8-4.7,25.1,36.8,26.9,39.2
		c1.8,2.3,9.4-13.5,13.5-15.2c4.1-1.8,17.5,22.2,17.5,22.2s45.6-60.8,52-62c6.4-1.2,41.5,60.2,41.5,60.2s11.1-22.1,21.1-31.2
		c9.9-9.1,21.6,17.9,21.6,17.9S694,87.8,707,82.5c12.9-5.3,25.1,56.7,25.1,56.7V224L-0.1,239.8V129.9z"/>
	<path class="st2" d="M75.4,153.9l-19.9,28.1l-21.6-72.5C33.9,109.4,52,124.6,75.4,153.9z"/>
	<path class="st2" d="M108.1,125.8c0,0,12.9,17,19.3,28.7l-12.9,21.1L108.1,125.8z"/>
	<path class="st2" d="M203.5,91.3c0,0,76.6,94.3,89.5,118.1c0,0,13.8-71.4-3.2-72l-15.6,22.1C274.2,159.5,214,89,203.5,91.3z"/>
	<path class="st2" d="M338.5,125.8c0,0,10.5,15.1,12.3,24.5L335,131.1L338.5,125.8z"/>
	<path class="st2" d="M405.8,142.2c0,0,17.5,31,19.3,39.8c0,0-1.2,9.4-5.3,11.7L405.8,142.2z"/>
	<path class="st2" d="M477.1,125.8c0,0,30.4,53.8,30.4,59.1c0,0,7.6-18,6.4-25.4c-1.2-7.4-11.7,0-11.7,0S478.9,119.4,477.1,125.8z"
		/>
	<path class="st2" d="M620.4,159.5l-5.8,12.5l-26.3-62.6C588.3,109.4,612.8,140.6,620.4,159.5z"/>
	<path class="st2" d="M652.2,130.1c0,0,12.1,28.1,15.4,50.3l8-11.1C675.7,169.3,660,124.1,652.2,130.1z"/>
	<path class="st3" d="M-0.1,203.3c0,0,9-15.4,16.7-14.4s26.2,27.8,26.2,27.8s8.9-13.4,14.9-13.4s19,13.4,19,13.4
		s10.1-28.9,18.4-27.8c8.3,1.1,14.9,27.8,14.9,27.8s16.1-15.4,22-13.4c5.9,2.1,17.2,20.6,17.2,20.6s16.1-5.1,20.8,0
		c4.8,5.1,17.8,4.1,23.8-7.2c5.9-11.3,20.8-15.4,28-1c0,0,11.9-16.4,18.4-18.5c6.5-2.1,14.9,24.7,14.9,24.7s7.1-7.2,14.3-7.2
		s14.3,12.2,14.3,12.2s16.7-21.7,25-19s18.4,13,18.4,13s14.9-24.7,25-22.6c10.1,2.1,32.7,9.7,32.7,9.7s13.7-5.6,19.6-4.5
		s30.9,23.5,30.9,23.5s14.3-28.7,29.1-23.5c14.9,5.1,30.9,17.5,30.9,17.5s13.1-23.6,23.2-23.6s26.8,10.3,32.1,16.4
		c5.4,6.2,13.1-15.4,26.2-15.4s32.1,2.9,37.8,9.7c0,0,14-12.8,35.4-8.6s21.4,17.5,21.4,17.5s9-17.5,15.8-17.5s13.9-23.6,21.7-23.6
		s23.2,25.6,23.2,25.6v81.3c0,0-25.3-29.8-375.3-29.8c-325.4,0-356.9,29.8-356.9,29.8V203.3z"/>
	<path class="st4" d="M-0.1,251.1c0,0,360.8-28.4,732.2,5.1v199H-0.1V251.1z"/>
</g>
<g id="Layer_2">
	<defs>
		<path id="SVGID_1_" d="M181.6,242.2l-11.3,7.6h-19.6v8.3l-13.5,4.8l16.1,4.3l-8.3,5.6h14.3l6.1,4.3l10.9,2.2l10,3.1l2.6,7.1
			c0,0,31.3,0,38.2,0l-20.4,13.3l8.9,4.8l-12.2,6.9l4.7,5.8l-22.4,21.5l33.1,15.1l-18,24.8l15,27.8l-18.9,45.5H583l21.4-23.9
			l-26.6-5.3l50-8.6l-76.7-14.7l-5.2-16.4l-31.8-1.7v-12.9h-18.5l-30.8-8.6l-39.8,7.8V358l-50.8,7.8l-14.7-12.1l-31.9,6l-41.4-11
			l-18.1-18.3l11.2-10l-28.7-12.7l9.5-5.6l-8.7-3.8l8.1-5.9l-3.2-2.8l-12-1.8l9-3.3l-10.3-3.2l-18.6-1.7l-1.6-2.6l-29.6-0.7l2-6.2
			l-19.5-7.8l12.1-11.1l3-9.1L181.6,242.2z"/>
	</defs>
	<clipPath id="SVGID_2_">
		<use xlink:href="#SVGID_1_"  style="overflow:visible;"/>
	</clipPath>
	<path class="st5" d="M203.5,232.7h-66.2l-14.7,53.1l110.1,168.7l45.7,0.8L271,293.5c0,0-7.1-23-29-23.5S203.5,232.7,203.5,232.7z"
		/>
	<polygon class="st6" points="514.1,384.7 519.8,455.2 545.5,455.2 545.9,386.4 	"/>
	<polygon class="st7" points="551.1,402.8 551.1,455.2 545.5,455.2 545.9,386.4 	"/>
	<polygon class="st8" points="627.8,417.4 551.1,402.8 551.1,455.2 612.1,455.2 	"/>
	<polygon class="st7" points="577.8,426.1 577.8,455.2 630.5,455.2 604.3,431.3 	"/>
	<polygon class="st7" points="495.6,371.8 493,455.2 526.1,455.2 514.1,371.8 	"/>
	<polygon class="st8" points="464.9,363.1 495.6,371.8 493,455.2 464.9,455.2 	"/>
	<polygon class="st6" points="425.1,370.9 464.9,363.1 464.9,455.2 425.1,455.2 	"/>
	<polygon class="st7" points="374.3,365.7 425.1,358 429.5,455.2 382.5,455.2 	"/>
	<polygon class="st6" points="359.7,353.7 366,455.2 382.5,455.2 374.3,365.7 	"/>
	<polygon class="st8" points="250.8,307.7 279.5,320.4 278.4,455.2 259,455.2 	"/>
	<polygon class="st8" points="327.8,359.7 359.7,353.7 366,455.2 327.8,455.2 	"/>
	<polygon class="st6" points="286.4,348.7 327.8,359.7 327.8,455.2 278.4,455.2 	"/>
	<polygon class="st7" points="268.3,330.4 271.5,455.2 278.4,455.2 286.4,348.7 	"/>
	<polygon class="st8" points="227.2,289.5 224.2,397.4 212.2,360.1 206.8,302.8 	"/>
	<polygon class="st6" points="215.7,307.7 203.5,314.5 203.5,365.4 218.6,378.5 	"/>
	<polygon class="st7" points="208.1,320.4 209.6,384.7 185.5,365.9 185.7,341.9 	"/>
	<polygon class="st7" points="218.7,357.1 200.7,381.9 206.2,455.2 236.4,455.2 	"/>
	<polygon class="st6" points="196.8,455.2 215.7,409.7 215.7,455.2 	"/>
</g>
<g id="Layer_3">
</g>
</svg>
