<svg xmlns="http://www.w3.org/2000/svg" xmlns:xlink="http://www.w3.org/1999/xlink" viewBox="0 0 732 455" enable-background="new 0 0 732 455"><style type="text/css">.st0{fill:#7C1D13;} .st1{fill:#471008;} .st2{fill:#701109;} .st3{fill:#280303;} .st4{fill:#563633;} .st5{clip-path:url(#SVGID_2_);fill:#280303;} .st6{clip-path:url(#SVGID_2_);fill:#564437;} .st7{clip-path:url(#SVGID_2_);fill:#442118;} .st8{clip-path:url(#SVGID_2_);fill:#473229;}</style><g id="Layer_1"><path class="st0" d="M-.1-.2h732.2v289.8h-732.2z"/><path class="st1" d="M-.1 129.9s25.2-24.6 32.2-27.5c7-2.9 46.8 48 46.8 48s22.2-29.8 27.5-32.2c5.3-2.3 27.5 32.2 27.5 32.2s43.3-63.7 59.6-70.8c16.4-7 80.1 73.7 80.1 73.7s28.1-43.9 35.7-46.2c7.6-2.3 25.1 21.1 25.1 21.1s5.3-11.5 8.8-11.9c3.5-.4 22.8 29 22.8 29s12.3-19.9 19.9-29c7.6-9.1 40.4 55.2 43.3 59.3 0 0 39.2-56.7 45-61.4 5.8-4.7 25.1 36.8 26.9 39.2 1.8 2.3 9.4-13.5 13.5-15.2 4.1-1.8 17.5 22.2 17.5 22.2s45.6-60.8 52-62c6.4-1.2 41.5 60.2 41.5 60.2s11.1-22.1 21.1-31.2c9.9-9.1 21.6 17.9 21.6 17.9s25.7-57.5 38.7-62.8c12.9-5.3 25.1 56.7 25.1 56.7v84.8l-732.2 15.8v-109.9z"/><path class="st2" d="M75.4 153.9l-19.9 28.1-21.6-72.5c0-.1 18.1 15.1 41.5 44.4zM108.1 125.8s12.9 17 19.3 28.7l-12.9 21.1-6.4-49.8zM203.5 91.3s76.6 94.3 89.5 118.1c0 0 13.8-71.4-3.2-72l-15.6 22.1s-60.2-70.5-70.7-68.2zM338.5 125.8s10.5 15.1 12.3 24.5l-15.8-19.2 3.5-5.3zM405.8 142.2s17.5 31 19.3 39.8c0 0-1.2 9.4-5.3 11.7l-14-51.5zM477.1 125.8s30.4 53.8 30.4 59.1c0 0 7.6-18 6.4-25.4-1.2-7.4-11.7 0-11.7 0s-23.3-40.1-25.1-33.7zM620.4 159.5l-5.8 12.5-26.3-62.6s24.5 31.2 32.1 50.1zM652.2 130.1s12.1 28.1 15.4 50.3l8-11.1c.1 0-15.6-45.2-23.4-39.2z"/><path class="st3" d="M-.1 203.3s9-15.4 16.7-14.4l26.2 27.8s8.9-13.4 14.9-13.4l19 13.4s10.1-28.9 18.4-27.8c8.3 1.1 14.9 27.8 14.9 27.8s16.1-15.4 22-13.4c5.9 2.1 17.2 20.6 17.2 20.6s16.1-5.1 20.8 0c4.8 5.1 17.8 4.1 23.8-7.2 5.9-11.3 20.8-15.4 28-1 0 0 11.9-16.4 18.4-18.5 6.5-2.1 14.9 24.7 14.9 24.7s7.1-7.2 14.3-7.2l14.3 12.2s16.7-21.7 25-19l18.4 13s14.9-24.7 25-22.6c10.1 2.1 32.7 9.7 32.7 9.7s13.7-5.6 19.6-4.5l30.9 23.5s14.3-28.7 29.1-23.5c14.9 5.1 30.9 17.5 30.9 17.5s13.1-23.6 23.2-23.6 26.8 10.3 32.1 16.4c5.4 6.2 13.1-15.4 26.2-15.4s32.1 2.9 37.8 9.7c0 0 14-12.8 35.4-8.6l21.4 17.5s9-17.5 15.8-17.5 13.9-23.6 21.7-23.6l23.2 25.6v81.3s-25.3-29.8-375.3-29.8c-325.4 0-356.9 29.8-356.9 29.8v-79.5z"/><path class="st4" d="M-.1 251.1s360.8-28.4 732.2 5.1v199h-732.2v-204.1z"/></g><g id="Layer_2"><defs><path id="SVGID_1_" d="M181.6 242.2l-11.3 7.6h-19.6v8.3l-13.5 4.8 16.1 4.3-8.3 5.6h14.3l6.1 4.3 10.9 2.2 10 3.1 2.6 7.1h38.2l-20.4 13.3 8.9 4.8-12.2 6.9 4.7 5.8-22.4 21.5 33.1 15.1-18 24.8 15 27.8-18.9 45.5h386.1l21.4-23.9-26.6-5.3 50-8.6-76.7-14.7-5.2-16.4-31.8-1.7v-12.9h-18.5l-30.8-8.6-39.8 7.8v-12.7l-50.8 7.8-14.7-12.1-31.9 6-41.4-11-18.1-18.3 11.2-10-28.7-12.7 9.5-5.6-8.7-3.8 8.1-5.9-3.2-2.8-12-1.8 9-3.3-10.3-3.2-18.6-1.7-1.6-2.6-29.6-.7 2-6.2-19.5-7.8 12.1-11.1 3-9.1-9.2.1z"/></defs><clipPath id="SVGID_2_"><use xlink:href="#SVGID_1_" overflow="visible"/></clipPath><path class="st5" d="M203.5 232.7h-66.2l-14.7 53.1 110.1 168.7 45.7.8-7.4-161.8s-7.1-23-29-23.5l-38.5-37.3z"/><path class="st6" d="M514.1 384.7l5.7 70.5h25.7l.4-68.8z"/><path class="st7" d="M551.1 402.8v52.4h-5.6l.4-68.8z"/><path class="st8" d="M627.8 417.4l-76.7-14.6v52.4h61z"/><path class="st7" d="M577.8 426.1v29.1h52.7l-26.2-23.9zM495.6 371.8l-2.6 83.4h33.1l-12-83.4z"/><path class="st8" d="M464.9 363.1l30.7 8.7-2.6 83.4h-28.1z"/><path class="st6" d="M425.1 370.9l39.8-7.8v92.1h-39.8z"/><path class="st7" d="M374.3 365.7l50.8-7.7 4.4 97.2h-47z"/><path class="st6" d="M359.7 353.7l6.3 101.5h16.5l-8.2-89.5z"/><path class="st8" d="M250.8 307.7l28.7 12.7-1.1 134.8h-19.4zM327.8 359.7l31.9-6 6.3 101.5h-38.2z"/><path class="st6" d="M286.4 348.7l41.4 11v95.5h-49.4z"/><path class="st7" d="M268.3 330.4l3.2 124.8h6.9l8-106.5z"/><path class="st8" d="M227.2 289.5l-3 107.9-12-37.3-5.4-57.3z"/><path class="st6" d="M215.7 307.7l-12.2 6.8v50.9l15.1 13.1z"/><path class="st7" d="M208.1 320.4l1.5 64.3-24.1-18.8.2-24zM218.7 357.1l-18 24.8 5.5 73.3h30.2z"/><path class="st6" d="M196.8 455.2l18.9-45.5v45.5z"/></g></svg>