<svg xmlns="http://www.w3.org/2000/svg" xmlns:xlink="http://www.w3.org/1999/xlink" viewBox="0 0 732.2 455.4" enable-background="new 0 0 732.2 455.4"><style type="text/css">.st0{clip-path:url(#SVGID_2_);fill:#331F12;} .st1{clip-path:url(#SVGID_2_);fill:#564437;} .st2{clip-path:url(#SVGID_2_);fill:#472B18;} .st3{clip-path:url(#SVGID_2_);fill:#49372A;} .st4{fill:#BBEBEF;} .st5{fill:#B2B3B7;} .st6{fill:#656972;} .st7{fill:#378C37;} .st8{fill:#00DEEF;}</style><g id="Layer_2"><defs><path id="SVGID_1_" d="M181.7 242.4l-11.3 7.6h-19.6v8.3l-13.5 4.8 16.1 4.3-8.3 5.6h14.3l6.1 4.3 10.9 2.2 10 3.1 2.6 7.1h38.2l-20.3 13.3 8.9 4.8-12.2 6.9 4.7 5.8-22.4 21.5 33.1 15.1-18 24.8 15 27.8-18.9 45.5h386.2l21.4-23.9-26.6-5.3 50-8.6-76.9-14.4-5.2-16.4-31.8-1.7v-12.9h-18.5l-30.8-8.6-39.8 7.8v-12.9l-50.8 7.8-14.7-12.1-31.9 6-41.4-11-18.1-18.3 11.2-10-28.4-12.8 9.5-5.6-8.7-3.8 8.1-5.9-3.2-2.8-12-1.8 9-3.3-10.3-3.2-18.6-1.7-1.6-2.6-29.6-.7 2-6.2-19.5-7.8 12.1-11.1 3-9.1-9.5.1z"/></defs><clipPath id="SVGID_2_"><use xlink:href="#SVGID_1_" overflow="visible"/></clipPath><path class="st0" d="M203.6 232.9h-66.2l-14.7 53.1 110.1 168.7 45.7.8-7.4-161.8s-7.1-23-29-23.5l-38.5-37.3z"/><path class="st1" d="M514.2 384.9l5.7 70.5h25.7l.4-68.8z"/><path class="st2" d="M551.2 403v52.4h-5.6l.4-68.8z"/><path class="st3" d="M627.9 417.7l-76.7-14.7v52.4h61z"/><path class="st2" d="M577.9 426.3v29.1h52.7l-26.1-23.8zM495.7 372l-2.6 83.4h33.1l-12-83.4z"/><path class="st3" d="M465 363.4l30.7 8.6-2.6 83.4h-28.1z"/><path class="st1" d="M425.2 371.1l39.8-7.7v92h-39.8z"/><path class="st2" d="M374.5 365.9l50.7-7.7 4.4 97.2h-47z"/><path class="st1" d="M359.8 353.9l6.3 101.5h16.5l-8.1-89.5z"/><path class="st3" d="M251 307.9l28.6 12.7-1.1 134.8h-19.4zM327.9 359.9l31.9-6 6.3 101.5h-38.2z"/><path class="st1" d="M286.5 348.9l41.4 11v95.5h-49.4z"/><path class="st2" d="M268.4 330.6l3.3 124.8h6.8l8-106.5z"/><path class="st1" d="M196.9 455.4l18.9-45.5v45.5z"/><path class="st3" d="M227.3 289.8l-2.9 107.8-12.1-37.3-5.4-57.3z"/><path class="st1" d="M215.8 307.9l-12.2 6.9v50.8l15.1 13.1z"/><path class="st2" d="M208.2 320.6l1.5 64.3-24.1-18.8.2-24zM218.9 357.3l-18.1 24.8 5.5 73.3h30.2z"/></g><g id="Layer_1"><path class="st4" d="M0 0h732.2v289.8h-732.2z"/><path class="st5" d="M0 130.1s25.2-24.6 32.2-27.5c7-2.9 46.8 48 46.8 48s22.2-29.8 27.5-32.2c5.3-2.3 27.5 32.2 27.5 32.2s43.3-63.7 59.6-70.8c16.4-7 80.1 73.7 80.1 73.7s28.1-43.9 35.7-46.2c7.6-2.3 25.1 21.1 25.1 21.1s5.3-11.5 8.8-11.9c3.5-.4 22.8 29 22.8 29s12.3-19.9 19.9-29c7.6-9.1 40.4 55.2 43.3 59.3 0 0 39.2-56.7 45-61.4 5.8-4.7 25.1 36.8 26.9 39.2s9.4-13.5 13.5-15.2c4.1-1.8 17.5 22.2 17.5 22.2s45.6-60.8 52-62c6.4-1.2 41.5 60.2 41.5 60.2s11.1-22.1 21.1-31.2l21.6 17.9s25.7-57.4 38.6-62.7c12.9-5.3 25.1 56.7 25.1 56.7v84.8l-732.1 15.8v-110z"/><path class="st6" d="M75.5 154.1l-19.9 28.1-21.6-72.6s18.1 15.3 41.5 44.5zM108.3 126s12.9 17 19.3 28.7l-12.9 21.1-6.4-49.8zM203.6 91.5s76.6 94.3 89.5 118.1c0 0 13.8-71.4-3.2-72l-15.6 22.1s-60.2-70.5-70.7-68.2zM338.7 126s10.5 15.1 12.3 24.5l-15.8-19.3 3.5-5.2zM405.9 142.4s17.5 31 19.3 39.8c0 0-1.2 9.4-5.3 11.7l-14-51.5zM477.3 126s30.4 53.8 30.4 59.1c0 0 7.6-18 6.4-25.4-1.2-7.4-11.7 0-11.7 0s-23.4-40.1-25.1-33.7zM620.5 159.7l-5.8 12.5-26.3-62.6s24.5 31.2 32.1 50.1zM652.4 130.3s12.1 28.1 15.4 50.3l8-11.1s-15.7-45.2-23.4-39.2zM0 203.5s9-15.4 16.7-14.4l26.2 27.8s8.9-13.4 14.9-13.4l19 13.4s10.1-28.9 18.4-27.9c8.3 1.1 14.9 27.8 14.9 27.8s16.1-15.4 22-13.4c5.9 2.1 17.2 20.6 17.2 20.6s16.1-5.1 20.8 0c4.8 5.1 17.8 4.1 23.8-7.2s20.8-15.4 28-1c0 0 11.9-16.4 18.4-18.5l14.9 24.7s7.1-7.2 14.3-7.2c7.1 0 14.3 12.2 14.3 12.2s16.7-21.7 25-19c8.3 2.7 18.4 13 18.4 13s14.9-24.7 25-22.6l32.7 9.7s13.7-5.6 19.6-4.5l30.9 23.5s14.3-28.7 29.1-23.5c14.9 5.1 30.9 17.5 30.9 17.5s13.1-23.6 23.2-23.6 26.8 10.3 32.1 16.4 13.1-15.4 26.2-15.4 32.1 2.9 37.8 9.7c0 0 14-12.8 35.4-8.6 21.4 4.1 21.4 17.5 21.4 17.5s9-17.5 15.8-17.5c6.8 0 13.9-23.6 21.7-23.6l23.2 25.6v81.3s-25.3-29.8-375.3-29.8c-325.4-.2-356.9 29.6-356.9 29.6v-79.2z"/><path class="st7" d="M0 251.3s360.8-28.4 732.2 5.1l-1.1 198.3h-732.2l1.1-203.4z"/><path class="st8" d="M235.2 241.6s27.8-1.1 32.6-1.3c0 0-77 28.9-50.6 56.1 33.1 34.2 154.1 52.4 154.1 52.4l-93.7 26.7s-86.2-30.5-101.6-68.6l59.2-65.3zM181.6 454.7s-83.6 2.7-63.7-25.5c19.9-28.3 98.7-9.5 93.2-31.6s-76.7-25.5-53.5-34.2c23.2-8.7 107.7-6.1 107.7-6.1s52.2-19.2 179.8-13.6c31.2 1.4 118.3 20 136.4 31.8s-30.9 21.8-3.6 33.9c27.4 12.2 115.1 9.9 68.8 45.3h-465.1z"/></g></svg>