<svg xmlns="http://www.w3.org/2000/svg" viewBox="0 0 732 455" enable-background="new 0 0 732 455"><style type="text/css">.st0{fill:#BBEBEF;} .st1{fill:#B2B3B7;} .st2{fill:#656972;} .st3{fill:#378C37;} .st4{fill:#00DEEF;}</style><path class="st0" d="M.9-.2h731.1v289.8h-731.1z"/><path class="st1" d="M-.2 129.9s25.2-24.6 32.2-27.5c7-2.9 46.8 48 46.8 48s22.2-29.8 27.5-32.2c5.3-2.3 27.5 32.2 27.5 32.2s43.3-63.7 59.6-70.8c16.4-7 80.1 73.7 80.1 73.7s28.1-43.9 35.7-46.2c7.6-2.3 25.1 21.1 25.1 21.1s5.3-11.5 8.8-11.9c3.5-.4 22.8 29 22.8 29s12.3-19.9 19.9-29c7.6-9.1 40.4 55.2 43.3 59.3 0 0 39.2-56.7 45-61.4 5.8-4.7 25.1 36.8 26.9 39.2 1.8 2.3 9.4-13.5 13.5-15.2 4.1-1.8 17.5 22.2 17.5 22.2s45.6-60.8 52-62c6.4-1.2 41.5 60.2 41.5 60.2s11.1-22.1 21.1-31.2l21.6 17.9s25.7-57.4 38.6-62.7c12.9-5.3 25.1 56.7 25.1 56.7v84.7l-732.1 15.8v-109.9z"/><path class="st2" d="M76.4 153.9l-19.9 28.1-21.6-72.5c0-.1 18.1 15.1 41.5 44.4zM109.1 125.8s12.9 17 19.3 28.7l-12.9 21.1-6.4-49.8zM204.5 91.3s76.6 94.3 89.5 118.1c0 0 13.8-71.4-3.2-72l-15.6 22.1s-60.2-70.5-70.7-68.2zM339.5 125.8s10.5 15.1 12.3 24.5l-15.8-19.2 3.5-5.3zM406.8 142.2s17.5 31 19.3 39.8c0 0-1.2 9.4-5.3 11.7l-14-51.5zM478.1 125.8s30.4 53.8 30.4 59.1c0 0 7.6-18 6.4-25.4-1.2-7.4-11.7 0-11.7 0s-23.3-40.1-25.1-33.7zM621.4 159.5l-5.8 12.5-26.3-62.6s24.5 31.2 32.1 50.1zM653.2 130.1s12.1 28.1 15.4 50.3l8-11.1c.1 0-15.6-45.2-23.4-39.2zM-.2 203.3s9-15.4 16.7-14.4l26.2 27.8s8.9-13.4 14.9-13.4l19 13.4s10.1-28.9 18.4-27.8c8.3 1.1 14.9 27.8 14.9 27.8s16.1-15.4 22-13.4c5.9 2.1 17.2 20.6 17.2 20.6s16.1-5.1 20.8 0c4.8 5.1 17.8 4.1 23.8-7.2 5.9-11.3 20.8-15.4 28-1 0 0 11.9-16.4 18.4-18.5 6.5-2.1 14.9 24.7 14.9 24.7s7.1-7.2 14.3-7.2l14.3 12.2s16.7-21.7 25-19c8.3 2.7 18.4 13 18.4 13s14.9-24.7 25-22.6c10.1 2.1 32.7 9.7 32.7 9.7s13.7-5.6 19.6-4.5c5.9 1 30.9 23.5 30.9 23.5s14.3-28.7 29.1-23.5c14.9 5.1 30.9 17.5 30.9 17.5s13.1-23.6 23.2-23.6 26.8 10.3 32.1 16.4c5.4 6.2 13.1-15.4 26.2-15.4s32.1 2.9 37.8 9.7c0 0 14-12.8 35.4-8.6 21.4 4.1 21.4 17.5 21.4 17.5s9-17.5 15.8-17.5c6.8 0 13.9-23.6 21.7-23.6l23.2 25.6v81.3s-25.3-29.8-375.3-29.8c-325.4 0-356.9 29.8-356.9 29.8v-79.5z"/><path class="st3" d="M-.2 251.1s360.8-28.4 732.2 5.1l-1.1 198.3h-732.2l1.1-203.4z"/><path class="st4" d="M236.1 241.4s27.8-1.1 32.6-1.3c0 0-77 28.9-50.6 56.1 33.1 34.2 154.1 52.4 154.1 52.4l-93.7 26.7s-86.2-30.5-101.6-68.6l59.2-65.3zM182.5 454.5s-83.6 2.7-63.7-25.5c19.9-28.3 98.7-9.5 93.2-31.6s-76.7-25.5-53.5-34.2c23.2-8.7 107.7-6.1 107.7-6.1s52.2-19.2 179.8-13.6c31.2 1.4 118.3 20 136.4 31.8 18 11.8-30.9 21.8-3.6 33.9 27.4 12.2 115.1 9.9 68.8 45.3h-465.1z"/></svg>