<?xml version="1.0" encoding="utf-8"?>
<!-- Generator: Adobe Illustrator 18.1.1, SVG Export Plug-In . SVG Version: 6.00 Build 0)  -->
<svg version="1.1" xmlns="http://www.w3.org/2000/svg" xmlns:xlink="http://www.w3.org/1999/xlink" x="0px" y="0px"
	 viewBox="0 0 732.2 455.4" style="enable-background:new 0 0 732.2 455.4;" xml:space="preserve">
<style type="text/css">
	.st0{clip-path:url(#SVGID_2_);fill:#331F12;}
	.st1{clip-path:url(#SVGID_2_);fill:#564437;}
	.st2{clip-path:url(#SVGID_2_);fill:#472B18;}
	.st3{clip-path:url(#SVGID_2_);fill:#49372A;}
	.st4{fill:#BBEBEF;}
	.st5{fill:#B2B3B7;}
	.st6{fill:#656972;}
	.st7{fill:#378C37;}
	.st8{fill:#00DEEF;}
</style>
<g id="Layer_2">
	<defs>
		<path id="SVGID_1_" d="M181.7,242.4l-11.3,7.6h-19.6v8.3l-13.5,4.8l16.1,4.3l-8.3,5.6h14.3l6.1,4.3l10.9,2.2l10,3.1l2.6,7.1
			c0,0,31.3,0,38.2,0L206.9,303l8.9,4.8l-12.2,6.9l4.7,5.8l-22.4,21.5l33.1,15.1l-18,24.8l15,27.8l-18.9,45.5h386.2l21.4-23.9
			l-26.6-5.3l50-8.6L551.2,403l-5.2-16.4l-31.8-1.7V372h-18.5l-30.8-8.6l-39.8,7.8v-12.9l-50.8,7.8l-14.7-12.1l-31.9,6l-41.4-11
			l-18.1-18.3l11.2-10L251,307.9l9.5-5.6l-8.7-3.8l8.1-5.9l-3.2-2.8l-12-1.8l9-3.3l-10.3-3.2l-18.6-1.7l-1.6-2.6l-29.6-0.7l2-6.2
			l-19.5-7.8l12.1-11.1l3-9.1L181.7,242.4z"/>
	</defs>
	<clipPath id="SVGID_2_">
		<use xlink:href="#SVGID_1_"  style="overflow:visible;"/>
	</clipPath>
	<path class="st0" d="M203.6,232.9h-66.2L122.7,286l110.1,168.7l45.7,0.8l-7.4-161.8c0,0-7.1-23-29-23.5S203.6,232.9,203.6,232.9z"
		/>
	<polygon class="st1" points="514.2,384.9 519.9,455.4 545.6,455.4 546,386.6 	"/>
	<polygon class="st2" points="551.2,403 551.2,455.4 545.6,455.4 546,386.6 	"/>
	<polygon class="st3" points="627.9,417.7 551.2,403 551.2,455.4 612.2,455.4 	"/>
	<polygon class="st2" points="577.9,426.3 577.9,455.4 630.6,455.4 604.5,431.6 	"/>
	<polygon class="st2" points="495.7,372 493.1,455.4 526.2,455.4 514.2,372 	"/>
	<polygon class="st3" points="465,363.4 495.7,372 493.1,455.4 465,455.4 	"/>
	<polygon class="st1" points="425.2,371.1 465,363.4 465,455.4 425.2,455.4 	"/>
	<polygon class="st2" points="374.5,365.9 425.2,358.2 429.6,455.4 382.6,455.4 	"/>
	<polygon class="st1" points="359.8,353.9 366.1,455.4 382.6,455.4 374.5,365.9 	"/>
	<polygon class="st3" points="251,307.9 279.6,320.6 278.5,455.4 259.1,455.4 	"/>
	<polygon class="st3" points="327.9,359.9 359.8,353.9 366.1,455.4 327.9,455.4 	"/>
	<polygon class="st1" points="286.5,348.9 327.9,359.9 327.9,455.4 278.5,455.4 	"/>
	<polygon class="st2" points="268.4,330.6 271.7,455.4 278.5,455.4 286.5,348.9 	"/>
	<polygon class="st1" points="196.9,455.4 215.8,409.9 215.8,455.4 	"/>
	<polygon class="st3" points="227.3,289.8 224.4,397.6 212.3,360.3 206.9,303 	"/>
	<polygon class="st1" points="215.8,307.9 203.6,314.8 203.6,365.6 218.7,378.7 	"/>
	<polygon class="st2" points="208.2,320.6 209.7,384.9 185.6,366.1 185.8,342.1 	"/>
	<polygon class="st2" points="218.9,357.3 200.8,382.1 206.3,455.4 236.5,455.4 	"/>
</g>
<g id="Layer_1">
	<rect x="0" y="0" class="st4" width="732.2" height="289.8"/>
	<path class="st5" d="M0,130.1c0,0,25.2-24.6,32.2-27.5c7-2.9,46.8,48,46.8,48s22.2-29.8,27.5-32.2c5.3-2.3,27.5,32.2,27.5,32.2
		s43.3-63.7,59.6-70.8c16.4-7,80.1,73.7,80.1,73.7s28.1-43.9,35.7-46.2c7.6-2.3,25.1,21.1,25.1,21.1s5.3-11.5,8.8-11.9
		c3.5-0.4,22.8,29,22.8,29s12.3-19.9,19.9-29c7.6-9.1,40.4,55.2,43.3,59.3c0,0,39.2-56.7,45-61.4c5.8-4.7,25.1,36.8,26.9,39.2
		s9.4-13.5,13.5-15.2c4.1-1.8,17.5,22.2,17.5,22.2s45.6-60.8,52-62c6.4-1.2,41.5,60.2,41.5,60.2s11.1-22.1,21.1-31.2
		s21.6,17.9,21.6,17.9s25.7-57.4,38.6-62.7c12.9-5.3,25.1,56.7,25.1,56.7v84.8L0,240.1V130.1z"/>
	<path class="st6" d="M75.5,154.1l-19.9,28.1L34,109.6C34,109.6,52.1,124.9,75.5,154.1z"/>
	<path class="st6" d="M108.3,126c0,0,12.9,17,19.3,28.7l-12.9,21.1L108.3,126z"/>
	<path class="st6" d="M203.6,91.5c0,0,76.6,94.3,89.5,118.1c0,0,13.8-71.4-3.2-72l-15.6,22.1C274.3,159.7,214.1,89.2,203.6,91.5z"/>
	<path class="st6" d="M338.7,126c0,0,10.5,15.1,12.3,24.5l-15.8-19.3L338.7,126z"/>
	<path class="st6" d="M405.9,142.4c0,0,17.5,31,19.3,39.8c0,0-1.2,9.4-5.3,11.7L405.9,142.4z"/>
	<path class="st6" d="M477.3,126c0,0,30.4,53.8,30.4,59.1c0,0,7.6-18,6.4-25.4c-1.2-7.4-11.7,0-11.7,0S479,119.6,477.3,126z"/>
	<path class="st6" d="M620.5,159.7l-5.8,12.5l-26.3-62.6C588.4,109.6,612.9,140.8,620.5,159.7z"/>
	<path class="st6" d="M652.4,130.3c0,0,12.1,28.1,15.4,50.3l8-11.1C675.8,169.5,660.1,124.3,652.4,130.3z"/>
	<path class="st6" d="M0,203.5c0,0,9-15.4,16.7-14.4s26.2,27.8,26.2,27.8s8.9-13.4,14.9-13.4s19,13.4,19,13.4S86.9,188,95.2,189
		c8.3,1.1,14.9,27.8,14.9,27.8s16.1-15.4,22-13.4c5.9,2.1,17.2,20.6,17.2,20.6s16.1-5.1,20.8,0c4.8,5.1,17.8,4.1,23.8-7.2
		s20.8-15.4,28-1c0,0,11.9-16.4,18.4-18.5s14.9,24.7,14.9,24.7s7.1-7.2,14.3-7.2c7.1,0,14.3,12.2,14.3,12.2s16.7-21.7,25-19
		c8.3,2.7,18.4,13,18.4,13s14.9-24.7,25-22.6s32.7,9.7,32.7,9.7s13.7-5.6,19.6-4.5s30.9,23.5,30.9,23.5s14.3-28.7,29.1-23.5
		c14.9,5.1,30.9,17.5,30.9,17.5s13.1-23.6,23.2-23.6s26.8,10.3,32.1,16.4s13.1-15.4,26.2-15.4s32.1,2.9,37.8,9.7
		c0,0,14-12.8,35.4-8.6c21.4,4.1,21.4,17.5,21.4,17.5s9-17.5,15.8-17.5c6.8,0,13.9-23.6,21.7-23.6s23.2,25.6,23.2,25.6v81.3
		c0,0-25.3-29.8-375.3-29.8C31.5,252.9,0,282.7,0,282.7V203.5z"/>
	<path class="st7" d="M0,251.3c0,0,360.8-28.4,732.2,5.1l-1.1,198.3H-1.1L0,251.3z"/>
	<path class="st8" d="M235.2,241.6c0,0,27.8-1.1,32.6-1.3c0,0-77,28.9-50.6,56.1c33.1,34.2,154.1,52.4,154.1,52.4l-93.7,26.7
		c0,0-86.2-30.5-101.6-68.6S235.2,241.6,235.2,241.6z"/>
	<path class="st8" d="M181.6,454.7c0,0-83.6,2.7-63.7-25.5c19.9-28.3,98.7-9.5,93.2-31.6c-5.5-22.1-76.7-25.5-53.5-34.2
		c23.2-8.7,107.7-6.1,107.7-6.1s52.2-19.2,179.8-13.6c31.2,1.4,118.3,20,136.4,31.8s-30.9,21.8-3.6,33.9
		c27.4,12.2,115.1,9.9,68.8,45.3H181.6z"/>
</g>
</svg>
