<?xml version="1.0" encoding="utf-8"?>
<!-- Generator: Adobe Illustrator 18.1.1, SVG Export Plug-In . SVG Version: 6.00 Build 0)  -->
<svg version="1.1" xmlns="http://www.w3.org/2000/svg" xmlns:xlink="http://www.w3.org/1999/xlink" x="0px" y="0px"
	 viewBox="0 0 732.2 455.4" style="enable-background:new 0 0 732.2 455.4;" xml:space="preserve">
<style type="text/css">
	.st0{fill:#BBEBEF;}
	.st1{fill:#B2B3B7;}
	.st2{fill:#656972;}
	.st3{fill:#006302;}
	.st4{fill:#00DEEF;}
	.st5{fill:#32B732;}
</style>
<g id="Layer_1">
	<rect x="0" y="0" class="st0" width="732.2" height="289.8"/>
	<path class="st1" d="M0,130.1c0,0,25.2-24.6,32.2-27.5c7-2.9,46.8,48,46.8,48s22.2-29.8,27.5-32.2c5.3-2.3,27.5,32.2,27.5,32.2
		s43.3-63.7,59.6-70.8c16.4-7,80.1,73.7,80.1,73.7s28.1-43.9,35.7-46.2c7.6-2.3,25.1,21.1,25.1,21.1s5.3-11.5,8.8-11.9
		c3.5-0.4,22.8,29,22.8,29s12.3-19.9,19.9-29c7.6-9.1,40.4,55.2,43.3,59.3c0,0,39.2-56.7,45-61.4c5.8-4.7,25.1,36.8,26.9,39.2
		s9.4-13.5,13.5-15.2c4.1-1.8,17.5,22.2,17.5,22.2s45.6-60.8,52-62c6.4-1.2,41.5,60.2,41.5,60.2s11.1-22.1,21.1-31.2
		s21.6,17.9,21.6,17.9s25.7-57.4,38.6-62.7c12.9-5.3,25.1,56.7,25.1,56.7v84.8L0,240.1V130.1z"/>
	<path class="st2" d="M75.5,154.1l-19.9,28.1L34,109.6C34,109.6,52.1,124.9,75.5,154.1z"/>
	<path class="st2" d="M108.3,126c0,0,12.9,17,19.3,28.7l-12.9,21.1L108.3,126z"/>
	<path class="st2" d="M203.6,91.5c0,0,76.6,94.3,89.5,118.1c0,0,13.8-71.4-3.2-72l-15.6,22.1C274.3,159.7,214.1,89.2,203.6,91.5z"/>
	<path class="st2" d="M338.7,126c0,0,10.5,15.1,12.3,24.5l-15.8-19.3L338.7,126z"/>
	<path class="st2" d="M405.9,142.4c0,0,17.5,31,19.3,39.8c0,0-1.2,9.4-5.3,11.7L405.9,142.4z"/>
	<path class="st2" d="M477.3,126c0,0,30.4,53.8,30.4,59.1c0,0,7.6-18,6.4-25.4c-1.2-7.4-11.7,0-11.7,0S479,119.6,477.3,126z"/>
	<path class="st2" d="M620.5,159.7l-5.8,12.5l-26.3-62.6C588.4,109.6,612.9,140.8,620.5,159.7z"/>
	<path class="st2" d="M652.4,130.3c0,0,12.1,28.1,15.4,50.3l8-11.1C675.8,169.5,660.1,124.3,652.4,130.3z"/>
	<path class="st2" d="M0,203.5c0,0,9-15.4,16.7-14.4s26.2,27.8,26.2,27.8s8.9-13.4,14.9-13.4s19,13.4,19,13.4S86.9,188,95.2,189
		c8.3,1.1,14.9,27.8,14.9,27.8s16.1-15.4,22-13.4c5.9,2.1,17.2,20.6,17.2,20.6s16.1-5.1,20.8,0c4.8,5.1,17.8,4.1,23.8-7.2
		s20.8-15.4,28-1c0,0,11.9-16.4,18.4-18.5s14.9,24.7,14.9,24.7s7.1-7.2,14.3-7.2c7.1,0,14.3,12.2,14.3,12.2s16.7-21.7,25-19
		c8.3,2.7,18.4,13,18.4,13s14.9-24.7,25-22.6s32.7,9.7,32.7,9.7s13.7-5.6,19.6-4.5s30.9,23.5,30.9,23.5s14.3-28.7,29.1-23.5
		c14.9,5.1,30.9,17.5,30.9,17.5s13.1-23.6,23.2-23.6s26.8,10.3,32.1,16.4s13.1-15.4,26.2-15.4s32.1,2.9,37.8,9.7
		c0,0,14-12.8,35.4-8.6c21.4,4.1,21.4,17.5,21.4,17.5s9-17.5,15.8-17.5c6.8,0,13.9-23.6,21.7-23.6s23.2,25.6,23.2,25.6v81.3
		c0,0-25.3-29.8-375.3-29.8C31.5,252.9,0,282.7,0,282.7V203.5z"/>
	<path class="st3" d="M0,251.3c0,0,360.8-28.4,732.2,5.1v80.4H0V251.3z"/>
	<path class="st4" d="M204.2,241.6c0,0,27.8-1.1,32.6-1.3c0,0-68,41.5-33.1,56.4c34.9,14.9,117.1,45.3,117.1,45.3l-48.6,33.5
		c0,0-112-30.5-127.3-68.6S204.2,241.6,204.2,241.6z"/>
	<path class="st5" d="M0,333.9c0,0,153.5-25.1,425.2-24.3c271.7,0.8,307,12.1,307,12.1v133.7H0L0,333.9z"/>
	<path class="st4" d="M280.3,311.1c0,0,98.1,24,92.5,144.3h187.8c0,0-12.1-79.3-137.2-145.8C423.3,309.6,342.6,304.1,280.3,311.1z"
		/>
</g>
<g id="Layer_2">
</g>
</svg>
