<svg xmlns="http://www.w3.org/2000/svg" id="Layer_1" width="1413" height="337" viewBox="0 0 1413 337">
  <style>
    .st0{fill:#2F5B5B;} .st1{fill:#439191;} .st2{fill:#57B2BC;}
  </style>
  <g id="third-wave">
    <path d="M1615.8 87.4v277.8h-1796V96.7c.6-.7 1-1.5 1.5-2.2 1.5-2.2 3-4.6 4.8-7 7-9.3 15-20 25-30.4 28-29 57-30 64-7 0 0-19-2-19 15 0 15 12 21 24 23l4 1h-4 22c8-4 22-13 39-31 26-30 55-31 62-8 0 0-19-2-19 15 0 15 12 21 24 23h22c8-4 21-12 38-30 28-29 57-30 64-7 0 0-19-3-19 15 0 15 12 21 24 23h22c7-4 21-12 38-30 27-29 56-30 63-7 0 0-20-3-20 15 0 15 11 21 23 23h23c8-4 22-12 38-30 28-29 57-30 64-7.3 0 0-20-3-20 14.4 0 15 12 20.5 24 23h23c8-4 21-13 38-31 28-29 57-30 64-7.2 0 0-19-3-19 14 0 16 12 21 24 24h23c8-4 22-12.4 39-30.4 27-29 57-30 64-7 0 0-19.3-3-19.3 14.3 0 15 11 21 23 23h23c8-4 22-12 39-30 27-29 56-30 63-7.6 0 0-19.5-3-19.5 14.7 0 15 11.8 21 24 23h22c7.8-3.5 21-12 38-30 27-29 56.8-30 63.8-7.5 0 0-19-3-19 14 0 15 11.4 21 23.6 23h23c8-4 21.4-12 38-30 27.5-29 57-30 64-7.3 0 0-20-3-20 14.5 0 15 11 21 23 23h21l2-.3c8-5 21-13 37-30 27-29 57-30 64-8 0 0-19.6-3-19.6 14 0 15 11.4 21 23.6 23h23c8-4 21-13 38-31 27-29 57-30 64-7.8 0 0-20-3-20 14.5 0 16 11.6 21 24 24h22.2c7-3.8 21-12 38-30 27-29 56.4-30 63.4-7 0 0-20-3-20 14.2 0 15 11.6 20.3 23.8 23h23c8-4 21.6-12.6 38.5-30.6 27-29 57-30 64-7 0 0-19.4-3-19.4 14.8 0 15.2 11 21 23.3 23.2h25z" class="st0"/>
  </g>
  <g id="second-wave"></g>
    <path d="M1558.6 158.2v272.5H-202.8V167.3l1.4-2.2 4.7-6c6.4-9 14.4-19 24-29 26.7-29 55.7-30 62.5-7 0 0-19-2-19 14 0 15 11 21 23 23h.2-.2.3l4 1c-1 0-2-1-4-1h22c8-4 21-12 38-30 26-28 55-29 62-6 0 0-19-2-19 14 0 15 12 21 24 23h22c8-3 21-12 38-29 27-28 56-29 63-7 0 0-19-2-19 15 0 15 11 21 23 23h22c8-3 21-12 38-29 26-28.2 55-29.2 62-7 0 0-19-3-19 14 0 15 11 20 23 22.8h22c8-3.5 21-12 38-29.5 26-30 55-31 62-8.3 0 0-19-2.5-19 14 0 15 12 20 24 23h22c8-3.7 21-12 38-29.7 27-29 56-30 63-7.4 0 0-19-3-19 14 0 15 11 20 23 22.5h22c8-3.4 21-12 38-29.4 28-28.7 56-29.7 63-7 0 0-19-3-19 14 0 15 12 20 24 22.4h22c7.8-4 21-12 37.5-30 26-29.6 55-30.6 62-8 0 0-19-2.8-19 14 0 15 11 20 23 22.5h22c8-3.6 21-12 37.8-29.6 26-28.6 55-29.6 62-7.3 0 0-19-2-19 14.6 0 15 11 20 23 22.5h22c8-3.2 21-12 38-29.2 27-29 56-30 62.8-8 0 0-19-2-19 15 0 15 11.3 20 23.3 22.2h21l2.6-1c8-4 20.4-12 36.2-29 27-28.6 56-29.6 63-7.3 0 0-19-2.4-19 14.5 0 15 11 20.6 23 23h22c8-3 21-12 38-29 26-28.6 55-29.6 62-7 0 0-19-2.7-19 14.2 0 15 12 20.6 24 23h22c8-3.5 21-12 37.7-29.5 27-28 56-29 63-7 0 0-19-2.8-19 14 0 15 11 20.3 23 23h22c7.6-4 21-12 37-30 27-29 56-30 63-7.7 0 0-19-2.3-19 14.6 0 15 11 20 23 22h24z" class="st1"/>
  </g>
  <g id="first-wave">
    <path d="M1536.4 231.3v263H-163V240c.3-.7.8-1.4 1.3-2l4.6-6.8c6-8.7 13-18.7 23-28.7 25-27.5 53-28.5 60-7 0 0-19-2.6-19 13.7 0 14.3 10 19.6 22 22l4 .5c-2-.2-3-.6-4-.6h21c7-3 20-11 36-28 26-27 54-28 60-7 0 0-19-2-19 14 0 15 10 20 22 22h22c7-3 20-11 36-28 26-27 54-28 60-7 0 0-19-2-19 14 0 15 11 20 22 22h22c7-3 20-11 36-29 26-27 54-28 60-7 0 0-18-2-18 14 0 15 11 20 22 22h21c7-3 20-11 36-28 26-27 54-28 60-7 0 0-19-2-19 14 0 15 11 20 22.5 22h22c7-3 20-11 36-29 26-27 54-28 60.3-7 0 0-18-2-18 14 0 15 11 20 23 22h21c8-3 20-11 36-29 26-27 54-28 61-7 0 0-18-2-18 14 0 15 11 20 22.7 22h21c7.7-3 20-11 36-28 26-28 54-29 60.7-7 0 0-18-3-18 14 0 15 11 20 23 22h21c7.2-3 20-11 36-29 25.6-27 53.6-28 60.2-7 0 0-19-2-19 14 0 15 11 20 23 22h21c7.7-3 20.5-11 36-29 26-27 54-28 60.7-7 0 0-18.2-2-18.2 14 0 15 11 20 23 22h22.8c8-3 20-12 35-28 26-27 54-28 60.8-7 0 0-19-2-19 14 0 15 11 20 22.4 22h21c7-3 20-11 36-28 25.5-28 53.5-29 60-7 0 0-18.7-3-18.7 13.4 0 14.5 10.4 20 22 22h21.5c7-3.6 20-11.6 36-28.7 25.4-27.6 53.4-28.6 60-7 0 0-18.5-2.7-18.5 13.6 0 14 11 19.5 22.7 22h21.3c7.5-4 20.3-12 36-29 26-28 54-29 60.5-7 0 0-18-3-18 13.6 0 14.7 10.5 20 22 22h22z" class="st2"/>
  </g>
</svg>
