<svg xmlns="http://www.w3.org/2000/svg" id="Layer_1" width="1413" height="337" viewBox="0 0 1413 337">
  <style>
    .st0{fill:#2F5B5B;} .st1{fill:#439191;} .st2{fill:#57B2BC;}
  </style>
  <path id="third-wave" d="M1392 63.5V239H35V69.2l1.2-1.4c1-1.5 2.3-3 3.7-4.6 4-5.8 11-12.5 18-19 20-18.5 43-19 48-4.7 0 0-15-1.8-15 9.2 0 9.4 8 13 17 14.5l3 .4c-1-.3-2-.5-3-.5h17c5-2 16-7 28-19 20-18 43-19 48-4 0 0-15-2-15 9 0 10 8 13 18 15h17c6-2 16-8 28-19 20-18 42-19 48-4 0 0-15-2-15 9 0 10 8 13 18 15h17c6-2 16-8 29-19 20-18 42-19 48-4 0 0-15-2-15 9 0 10 9 13 18 15h17c6-2 16-7 29-19 20-18 43-19 48-4 0 0-15-1-15 10 0 10 9 13 18 15h17c6-2 16-8 29-19 20-18 43-19 48-5 0 0-15-2-15 9 0 10 8 13 18 15h17c6-2 16-8 28-19 21-18 43-19 48-5 0 0-14-1-14 10 0 10 8 13 18 15h17c5-2 16-8 28-19 21-18 43-19 48-4 0 0-14-2-14 9 0 10 9 13 18 15h17c6-2 16-8 29-19 20-18 42-19 48-5 0 0-15-1-15 10 0 10 9 13 18 15h17c6-2.2 16-8 29-19 21-18.3 43-19 48-5 0 0-14-1.3-14 9.7 0 9 8 13 18 14h18c6-3 16-8 28-19 20-18.4 42-19 48-4.6 0 0-15-1-15 10 0 9.6 8 13 17 14.6h17c6-3 16-8 29-19 20-19 43-19 48-5 0 0-15-2-15 9 0 9.5 8 13 18 14.5h17c6-2.4 16-8 29-19 20-18.5 42-19 48-4.7 0 0-15-2-15 9 0 9 9 13 18 14h17c6-2 16-7.2 29-19 20-18 43-19 48-4 0 0-15-2-15 9 0 9 8 13 18 14l18-1z" class="st0"/>
  <path id="second-wave" d="M1348.7 108.2v172H18V114c.2-.5.6-1 1-1.5 1-1.4 2.3-2.8 3.6-4.4 4.8-5 11-12 18-18 20.2-18 42-19 47.4-5 0 0-14.6-1-14.6 9s8.4 13 17.4 15l3 1h-3 16.7c5.8-2 15.8-7 28.3-18 20-18 42-18 47.2-4 0 0-14.4-1-14.4 9s8.4 13 17.5 15h17c6-2 16-7 29-18 20-18 42-18 47-4 0 0-14-1-14 9s9 13 18 15h16c6-2 16-7 29-19 20-18 42-18 47-4 0 0-14-2-14 9 0 9 9 13 18 14h16c6-2 16-7 29-19 20-18 42-18 47-4 0 0-14-1-14 9s9 13 18 15h17c6-2 16-7 29-18 20-18 42-18.3 47-4.3 0 0-14-2-14 9 0 9 9 13 18 14h16c6-2.5 16-7.7 28-19 20-18 42-18.4 47-4.4 0 0-14-2-14 9 0 9 9 13 18 14h16c6-2.7 16-8 29-19 20-18 42-18.6 47-4.6 0 0-14-2-14 9 0 9 8 13 17 14h17c6-2 16-7 28-18.8 20-18 42-18.3 48-4.3 0 0-14.6-1-14.6 9s8 13 17.3 15h16c6-2 16-7.4 28-19 20-18 42-18 47-4 0 0-14-1.3-14 9 0 9.8 8.4 13 17.5 14.8h18c6-2.5 15-8 27-18 20-18 42-19 47-5 0 0-15-2-15 9 0 9 8.6 13 17.7 14h17c6-2 16-7.5 28-19 20-18 42-18 47-4 0 0-14-1.6-14 9 0 9.5 9 13 18 14.5h16.6c5.6-2.5 15.6-8 28-19 20-18 42-18.5 47-4.5 0 0-14-2-14 9 0 9 9 13 18 14h16.3c6-2 16-7 28-19 20-18 42-18 47-4 0 0-14-2-14 9 0 9 8.2 13 17.3 14h18z" class="st1"/>
  <path id="first-wave" d="M1332 154.3v166H48V159.8c.2-.4.6-1 1-1.3 1-1.3 2-2.7 3.4-4.2 4.6-5.5 10.5-11.8 17.5-18 19-17.5 40-18 45-4.5 0 0-14-1.7-14 8.7 0 9 8 12.4 17 13.8l3 .4c-1 0-2-.4-3-.4h16c5-2.3 15-7.3 27-18 19-17.5 40-18 45-4.5 0 0-14-1.7-14 8.7 0 9 8 12.4 17 13.8h16c5-2.3 15-7.3 27-18 19-17.5 40-18 45-4.5 0 0-14-1.7-14 8.7 0 9 8 12.4 17 13.8h16c5-2.3 15-7.3 27-18 19-17.5 40-18 45-4.5 0 0-14-1.7-14 8.7 0 9 8 12.4 17 13.8h16c5-2.3 15-7.3 27-18 19-17.5 40-18 45-4.5 0 0-14-1.7-14 8.7 0 9 8 12.4 17 13.8h16c5-2.3 15-7.3 27-18 19-17.5 40-18 45-4.5 0 0-14-1.7-14 8.7 0 9 8 12.4 17 13.8h16c5-2.3 15-7.3 27-18 19-17.5 40-18 45-4.5 0 0-14-1.7-14 8.7 0 9 8 12.4 17 13.8h16c5-2.3 15-7.3 27-18 19-17.5 40-18 45-4.5 0 0-14-1.7-14 8.7 0 9 8 12.4 17 13.8h16c6-2.3 15-7.3 27-18 20-17.5 41-18 46-4.5 0 0-14-1.7-14 8.7 0 9 8 12.4 17 13.8h16c6-2.3 16-7.3 28-18 19-17.5 40-18 45-4.5 0 0-14-1.7-14 8.7 0 9 8 12.4 17 13.8h16l1-.3c5.5-2.4 15-7.5 26.3-17.8 19-17.4 41-18 46-4.4 0 0-14-1.7-14 8.7 0 9 8 12.4 17 13.8h16c5.2-2.3 15-7.3 27-18 19.2-17.5 40.4-18 45.3-4.5 0 0-14-1.7-14 8.7 0 9 8 12.4 17 13.8h16c6-2.3 15-7.3 27-18 19.6-17.5 41-18 45.7-4.5 0 0-14-1.7-14 8.7 0 9 8 12.4 17 13.8h16c5.6-2.3 15-7.3 27-18 19.8-17.5 41-18 46-4.5 0 0-14-1.7-14 8.7 0 9 8 12.4 17 13.8h19z" class="st2"/>
</svg>
